<mxfile host="app.diagrams.net" modified="2023-12-20T14:09:15.531Z" agent="Mozilla/5.0 (Windows NT 10.0; Win64; x64) AppleWebKit/537.36 (KHTML, like Gecko) Chrome/120.0.0.0 Safari/537.36" version="22.1.11" etag="NzMdqiq9Xr89zgdKcFTR" type="github">
  <diagram name="Страница — 1" id="3Ra4HTQ19XPt1AhPG3j0">
    <mxGraphModel>
      <root>
        <mxCell id="0" />
        <mxCell id="1" parent="0" />
      </root>
    </mxGraphModel>
  </diagram>
</mxfile>
